<?xml version="1.0" encoding="UTF-8"?>
<svg id="_レイヤー_1" data-name="レイヤー_1" xmlns="http://www.w3.org/2000/svg" xmlns:xlink="http://www.w3.org/1999/xlink" version="1.1" viewBox="0 0 500 500">
  <!-- Generator: Adobe Illustrator 29.5.1, SVG Export Plug-In . SVG Version: 2.1.0 Build 141)  -->
  <defs>
    <style>
      .st0 {
        fill: none;
      }

      .st1 {
        fill: #272023;
      }

      .st2 {
        clip-path: url(#clippath-1);
      }

      .st3 {
        clip-path: url(#clippath-3);
      }

      .st4 {
        clip-path: url(#clippath-4);
      }

      .st5 {
        clip-path: url(#clippath-2);
      }

      .st6 {
        clip-path: url(#clippath-5);
      }

      .st7 {
        fill: #ffde59;
      }

      .st8 {
        clip-path: url(#clippath);
      }
    </style>
    <clipPath id="clippath">
      <rect class="st0" x="86" y="80.1" width="331.3" height="331.3"/>
    </clipPath>
    <clipPath id="clippath-1">
      <path class="st0" d="M251.6,80.1c-91.5,0-165.6,74.2-165.6,165.6s74.2,165.6,165.6,165.6,165.6-74.2,165.6-165.6-74.2-165.6-165.6-165.6Z"/>
    </clipPath>
    <clipPath id="clippath-2">
      <rect class="st0" x="70.7" y="97.3" width="354.7" height="290.7"/>
    </clipPath>
    <clipPath id="clippath-3">
      <rect class="st0" x="69" y="103.3" width="366" height="285" transform="translate(-26.6 30.7) rotate(-6.6)"/>
    </clipPath>
    <clipPath id="clippath-4">
      <rect class="st0" x="69" y="103.3" width="366" height="285" transform="translate(-26.6 30.7) rotate(-6.6)"/>
    </clipPath>
    <clipPath id="clippath-5">
      <rect class="st0" x="69" y="103.3" width="366" height="285" transform="translate(-26.6 30.7) rotate(-6.6)"/>
    </clipPath>
  </defs>
  <g id="_x36_2c6204d11">
    <g class="st8">
      <g class="st2">
        <path class="st7" d="M86,80.1h331.3v331.3H86V80.1Z"/>
      </g>
    </g>
    <g class="st5">
      <g class="st3">
        <g class="st4">
          <g class="st6">
            <path class="st1" d="M271.8,101.8c12.9-1.5,25-2.1,37.1-1.8,2.7,0,5.6,0,8.4,0,16.2,0,33,.1,48.5,4.2,17.5,4.6,30.5,13.8,39.9,28.1,3,4.5,5.6,9.4,7.8,14.6,11,26.7,12.6,60.7,4.7,101-2.7,9.2-6.3,18.2-10.5,26.5-28.3,62.7-79,104-135.9,110.6-3.6.4-7.3.7-10.9.8-7,.3-14.1,0-21.2-.8h-.2c-35.7.7-74.6-9-103.9-25.8-25.6-14.7-57.2-42.1-62.3-89.8-3.3-28.2,2.4-61.2,15.5-90.4,3-6.3,6.7-12.1,10.8-17.2,4.5-5.6,9.4-10.4,15.2-14.5,5.1-3.7,10.7-6.9,17.1-9.8,10-3,20.2-6.2,30.1-9.3,35.6-11,72.2-22.5,109.6-26.9M271.6,100.1c-48.1,5.6-93.9,22.6-140,36.2-6.1,2.7-12,5.9-17.5,10-5.6,4.1-10.8,8.9-15.6,14.8-4.4,5.5-8.1,11.3-11.1,17.4-12.6,28.1-19.2,61.2-15.7,91.4,9.1,85.4,102.9,118.3,167.8,117,7.3.8,14.4,1,21.5.8,3.7-.2,7.4-.4,11.1-.8,58.9-6.8,109.4-49.8,137.2-111.6,4.7-9.3,8.1-18.2,10.6-26.9,6.6-33.5,8.3-70.4-4.8-102-2.2-5.2-4.8-10.1-7.9-14.9-23.4-35.7-64-32.8-98.2-33.2-12.5-.4-24.9.3-37.2,1.7Z"/>
          </g>
        </g>
      </g>
    </g>
    <path class="st1" d="M105.6,240.2h12.3c2.8,0,5.1.7,7,2.1,1.9,1.4,2.9,3.4,2.9,6s-.9,4.8-2.8,6.2c-1.9,1.3-4.2,2-7.1,2h-7v13.7h2.7v1.1h-8v-1.1h2.7v-28.9h-2.7v-1.1ZM110.8,241.2v14.1h7c2,0,3.7-.7,4.9-2,1.2-1.3,1.8-3,1.8-5.1s-.6-3.7-1.7-5c-1.1-1.3-2.8-2-5-2h-7Z"/>
    <path class="st1" d="M137.4,255.3c0-4.1,1.3-7.7,3.9-10.7,2.6-3,6.2-4.5,10.8-4.5s7.7,1.4,10.3,4.3c2.7,2.9,4,6.5,4,10.9s-1.2,8.5-3.7,11.5c-2.5,2.9-6,4.4-10.6,4.4s-8.2-1.5-10.8-4.6c-2.6-3.1-3.9-6.8-3.9-11.3ZM140.6,255.3c0,4,1,7.4,2.9,10.4,1.9,2.9,4.8,4.4,8.5,4.4s6.3-1.5,8.2-4.4c1.9-2.9,2.8-6.4,2.8-10.4s-1-7-2.9-9.9c-1.9-2.8-4.6-4.3-8.1-4.3s-6.4,1.4-8.4,4.2c-2,2.8-3,6.1-3,9.9Z"/>
    <path class="st1" d="M177,240.2h11.9c3.1,0,5.7.7,7.6,2,1.9,1.3,2.9,3.2,2.9,5.6s-.9,4-2.8,5.3c-1.6,1.1-3.6,1.6-5.8,1.8l7.7,15.4h3.4v1.1h-6l-8-16.4h-5.5v15.3h2.7v1.1h-8.1v-1.1h2.9v-28.9h-2.9v-1.1ZM182.4,241.2v12.5h6.5c2.3,0,4.1-.7,5.4-2s2-2.7,2-4c0-2-.7-3.6-2.2-4.8-1.4-1.2-3.2-1.7-5.2-1.7h-6.5Z"/>
    <path class="st1" d="M223.2,270.1h2.7v1.1h-7.9v-1.1h2.7v-28.9h-2.5c-4.3,0-6.6,2.3-6.7,7h-1.6v-8.1h24v8.1h-1.6c0-4.7-2.2-7-6.5-7h-2.5v28.9Z"/>
    <path class="st1" d="M244.2,240.2h22v7.8h-1.6c0-4.5-1.8-6.7-5.4-6.7h-9.9v13h8.5c1.8,0,2.8-1.4,2.9-4.2h1.4v9h-1.4c-.1-2.5-1.1-3.8-2.9-3.8h-8.5v14.8h3.1v1.1h-8.5v-1.1h2.9v-28.9h-2.5v-1.1Z"/>
    <path class="st1" d="M277.4,255.3c0-4.1,1.3-7.7,3.9-10.7,2.6-3,6.2-4.5,10.8-4.5s7.7,1.4,10.3,4.3c2.7,2.9,4,6.5,4,10.9s-1.2,8.5-3.7,11.5c-2.5,2.9-6,4.4-10.6,4.4s-8.2-1.5-10.8-4.6c-2.6-3.1-3.9-6.8-3.9-11.3ZM280.7,255.3c0,4,1,7.4,2.9,10.4,1.9,2.9,4.8,4.4,8.5,4.4s6.3-1.5,8.2-4.4c1.9-2.9,2.8-6.4,2.8-10.4s-1-7-2.9-9.9c-1.9-2.8-4.6-4.3-8.1-4.3s-6.4,1.4-8.4,4.2c-2,2.8-3,6.1-3,9.9Z"/>
    <path class="st1" d="M319.7,241.2h-2.7v-1.1h7.9v1.1h-2.7v28.9h9.4c4.1,0,6.1-2.3,6.1-6.9h1.6v7.9h-22.4v-1.1h2.7v-28.9Z"/>
    <path class="st1" d="M354.6,270.1h2.7v1.1h-8v-1.1h2.7v-28.9h-2.5v-1.1h7.6v1.1h-2.5v28.9Z"/>
    <path class="st1" d="M368.5,255.3c0-4.1,1.3-7.7,3.9-10.7,2.6-3,6.2-4.5,10.8-4.5s7.7,1.4,10.3,4.3c2.7,2.9,4,6.5,4,10.9s-1.2,8.5-3.7,11.5c-2.5,2.9-6,4.4-10.6,4.4s-8.2-1.5-10.8-4.6c-2.6-3.1-3.9-6.8-3.9-11.3ZM371.8,255.3c0,4,1,7.4,2.9,10.4,1.9,2.9,4.8,4.4,8.5,4.4s6.3-1.5,8.2-4.4c1.9-2.9,2.8-6.4,2.8-10.4s-1-7-2.9-9.9c-1.9-2.8-4.6-4.3-8.1-4.3s-6.4,1.4-8.4,4.2c-2,2.8-3,6.1-3,9.9Z"/>
  </g>
</svg>